<?xml version="1.0" standalone="no"?>
<!DOCTYPE svg PUBLIC "-//W3C//DTD SVG 20010904//EN"
 "http://www.w3.org/TR/2001/REC-SVG-20010904/DTD/svg10.dtd">
<svg version="1.0" xmlns="http://www.w3.org/2000/svg"
 width="400.000000pt" height="400.000000pt" viewBox="0 0 400.000000 400.000000"
 preserveAspectRatio="xMidYMid meet">
<metadata>
Created by potrace 1.14, written by Peter Selinger 2001-2017
</metadata>
<g transform="translate(0.000000,400.000000) scale(0.100000,-0.100000)"
fill="#000000" stroke="none">
<path d="M1698 3944 c-27 -8 -33 -46 -33 -189 0 -97 5 -144 18 -185 21 -64 70
-162 102 -205 63 -84 69 -108 72 -285 2 -91 8 -181 13 -200 5 -19 12 -231 14
-470 3 -387 31 -993 51 -1103 7 -43 -3 -72 -34 -90 -58 -34 -77 -37 -115 -16
-62 33 -207 21 -237 -21 -16 -24 -17 -41 -4 -305 17 -352 34 -426 136 -577
100 -148 271 -270 356 -253 21 4 46 7 55 8 9 1 15 3 13 6 -3 2 16 17 40 32
142 90 259 257 305 438 18 70 20 113 21 372 2 353 12 329 -140 329 -85 0 -98
-2 -109 -20 -7 -11 -21 -20 -32 -20 -22 0 -91 30 -103 45 -8 9 -2 529 8 842 2
65 0 115 -6 118 -13 8 -12 668 1 681 6 6 11 88 13 189 3 202 -4 180 104 361
71 120 87 194 80 367 -3 76 -9 133 -16 140 -12 12 -537 21 -573 11z m540 -254
c-5 -85 -49 -178 -126 -262 -31 -34 -68 -78 -80 -95 -38 -54 -68 -46 -137 35
-89 103 -142 191 -165 273 -35 126 -61 114 246 114 l266 0 -4 -65z"/>
</g>
</svg>
